<?xml version="1.0" encoding="utf-8"?>
<!-- Generator: Adobe Illustrator 24.1.2, SVG Export Plug-In . SVG Version: 6.00 Build 0)  -->
<svg version="1.1" id="Layer_1" xmlns="http://www.w3.org/2000/svg" xmlns:xlink="http://www.w3.org/1999/xlink" x="0px" y="0px"
	 viewBox="0 0 500 500" style="enable-background:new 0 0 500 500;" xml:space="preserve">
<g>
	<g>
		<path d="M125.3,473.9c4-18,16.1-28.1,32-38.7c-13.7-6.3-25.4-13.2-38-17.1c-29.7-9.2-57.5-21.4-79.1-44.7
			c-20-21.5-29.8-47.3-29.9-76.7c-0.1-16.8,10.7-23.3,26.2-16.4c21.5,9.6,43.1,19.1,64.9,28c3.5,1.4,9.1,0.8,12.3-1.2
			c18.4-11,37.8-15.6,59.4-14.1c20.4,1.4,40.9,1,61.3,0.3c10.6-0.3,19,3.4,27.6,8.8c12.9,8.2,25.6,17.4,39.8,22.5
			c30.8,11.1,86.8-2.2,102.6-27.8c1.2-1.9,4.5-3.4,6.9-3.5c8.9-0.4,17.9-0.2,30-0.2c-6.2,9.5-10.5,17.9-16.4,25
			c-16,19.1-37.3,31.1-60.1,39.9c-34.9,13.5-66.7,31.8-95.4,56c-11.3,9.5-24.6,16.7-36.9,24.8c22,21,23.5,23.2,23.5,35.1
			C213,473.9,170,473.9,125.3,473.9z M98,375.1c-1.8-11.1-3.4-21.4-5.2-31.6c-0.2-1.4-1.3-3.2-2.4-3.7C76.7,334.7,63,329.7,48,324.2
			C58,349,75.6,363.9,98,375.1z"/>
		<path d="M141,276c11.5-14.7,20.6-28.6,32-40.3c11.7-12,26.9-11.5,38.1,0.7c10.7,11.6,19.5,24.9,30.8,39.6
			C207.4,276,176.1,276,141,276z"/>
	</g>
</g>
<path d="M207.1,185.3c1.7-4.2,2.8-8.9,5.3-12.6c8-12.1,23.5-16,36.5-9.8c0.5,0.2,1,0.5,1.9,0.9c0-1.2,0-2.1,0-3
	c0-33.6,0-67.3,0-100.9c0-5.8,1.1-7.4,6.4-9.5c31.3-12.5,62.6-25.1,93.9-37.6c5.4-2.2,9.8-0.5,11.2,4.3c0.3,0.9,0.3,1.9,0.3,2.9
	c0,43.3,0,86.7,0,130c0,16.7-13.3,29.7-30,29.4c-16.1-0.3-28.9-14.1-28.3-30.6c0.7-20.4,22.7-33.7,41.4-25.1c0.6,0.3,1.3,0.6,2.2,1
	c0-22,0-43.7,0-65.8c-27.5,11-55,22-82.5,33c0,1,0,2,0,3c0,31.3,0,62.6,0,93.8c0,16.9-13.5,30-30.4,29.5
	c-13.2-0.4-24.7-10.3-27.5-23.7c-0.1-0.5-0.3-1-0.5-1.6C207.1,190.5,207.1,187.9,207.1,185.3z"/>
<path d="M417.7,217c0-1.1,0-2,0-2.9c0-28.8,0-57.7-0.1-86.5c0-4.6,1.8-7.3,6-9.2c12.2-5.2,24.3-10.7,36.4-16.1
	c6.1-2.7,11.2,0.6,11.2,7.3c0,9.1,0,18.1,0,27.2c0,3.9-1.7,6.4-5.2,8c-10.5,4.6-21,9.4-31.5,13.9c-1.8,0.8-2.3,1.7-2.3,3.6
	c0.1,26.7,0.1,53.3,0,80c0,16.8-13.5,29.8-30.2,29.4c-14.5-0.4-27-12.4-28-26.9c-1.1-14.9,9.5-28.6,24.1-30.9
	C404.7,212.7,407.7,213.2,417.7,217z"/>
</svg>
