<?xml version="1.0" encoding="utf-8"?>
<!-- Generator: Adobe Illustrator 24.1.2, SVG Export Plug-In . SVG Version: 6.00 Build 0)  -->
<svg version="1.1" id="Layer_1" xmlns="http://www.w3.org/2000/svg" xmlns:xlink="http://www.w3.org/1999/xlink" x="0px" y="0px"
	 viewBox="0 0 500 500" style="enable-background:new 0 0 500 500;" xml:space="preserve">
<g>
	<g>
		<path d="M-343.7,431.8c-2.2-11-4.4-22.2-6.7-33.4c-2.3-11.4-4.6-22.8-6.9-34.3c-2.2-11,1.8-18.4,12.2-22.6
			c15.7-6.3,31.5-12.7,47.3-18.8c7.7-2.9,12.2-8.1,14.2-16c6-24.1,12.3-48.1,18.4-72.1c1.8-7,0.2-12-4.6-15.1
			c-4.2-2.8-9.9-3-13.5,0.4c-2.5,2.4-4.4,5.8-5.4,9.2c-5.6,19.2-11.1,38.4-16.2,57.7c-2.6,10-8.3,16.2-18.4,18.9
			c-15.1,4.1-29.8,9.9-45,12.9c-23.5,4.6-47.1,4-69.6-5.9c-2.6-1.1-5.3-1.9-8.1-2.6c-8.6-2.2-14.1-0.3-19.1,6.9
			c-25.4,35.7-50.7,71.5-75.9,107.3c-4.7,6.6-3.8,13.6,2.1,17.6c5.6,3.8,12.3,2.2,16.8-4.3c19.3-27.2,38.5-54.4,57.8-81.6
			c1.4-2,3.7-4,6-4.8c3.7-1.2,6.6,1.6,7.5,6.6c4.7,25.7,9.3,51.5,13.9,77.2c0.4,2,0.8,3.9,1.3,6.4c4.7,0,9.4-0.2,14,0.1
			c8.6,0.6,13.8,6,13.8,14.6c0.1,20,0.1,40,0,60c0,9.1-7.1,16.6-16.1,17.4c-1.7,0.1-3.3,0.1-5,0.1c-58.3,0-116.7-0.4-175,0.2
			c-19,0.2-24.7-15.8-19.1-28.4c8.3-18.9,17.2-37.5,26-56.2c2.4-5.1,6.7-7.7,12.4-7.8c3-0.1,6.1-0.5,9,0c6.8,1.3,11.8-2.8,17.2-5.4
			c0.9-0.4,1.1-2.4,1.5-3.7c1.7-5,2.3-10.7,5.2-14.8c24.7-35.6,49.8-70.9,74.9-106.2c10.6-14.9,22.1-19,39.1-11.9
			c23.4,9.6,47.3,11.3,71.5,5.9c14.6-3.3,28.7-8.5,42.9-13.4c2.4-0.8,4.7-4.3,5.5-7c6.2-20.9,11.9-42,18-62.9
			c3.2-11,12.8-17.7,24-17.6c10.8,0.1,20.6,7.1,23.3,17.7c1.1,4.5,1.2,9.7,0.1,14.2c-5.9,24.6-12.3,49.1-18.5,73.6
			c-3,11.9-10,20-21.5,24.4c-15.5,6-30.9,12.2-46.4,18.4c-6.2,2.5-6.7,3.5-5.4,10.2c4.2,20.6,8.3,41.1,12.5,61.7
			c0.3,1.4,0.7,2.9,0.8,3.2c15.7-0.1,31-1,46.2-0.2c16.2,0.8,32.1,3.9,46.3,12.5c1.3,0.8,3.1,1,4.7,1.1c5.2,0.1,10.3,0,15.5,0.1
			c5.9,0.1,10.3,2.8,12.8,8.1c8.8,18.5,17.6,37,25.8,55.8c1.9,4.3,1.9,9.8,1.4,14.6c-1,8.2-8,13.7-16.5,13.8
			c-60.8,0.1-121.7,0.1-182.5,0c-9.6,0-16.8-6.6-16.9-16.2c-0.4-20.7-0.3-41.3,0-62c0.1-8.2,5.9-14.6,13.5-13.7
			c13.4,1.5,24.6-4,36.1-8.9C-344.6,432.7-344.4,432.4-343.7,431.8z M-299.8,477.7c11.8-1.7,23.8-2.7,35.4-5.4
			c7.4-1.7,14.6-5.3,21.3-9.1c4.8-2.7,4.7-6.9,0-10c-4.6-3.1-9.8-5.9-15.1-7.5c-26.3-7.9-52.9-8.1-79.4-1.3
			c-6.8,1.7-13.4,5-19.5,8.6c-4.8,2.8-4.6,7.3-0.1,10.6c3.5,2.5,7.4,4.5,11.4,6C-330.9,474.9-315.5,476.4-299.8,477.7z
			 M-503.8,476.7c16.9-0.4,33.6-2.1,49.2-9.3c4.3-2,9.9-3.9,9.8-9.5c-0.1-5.4-5.7-7-9.8-8.9c-13.7-6.3-28.3-8.3-43.2-9.4
			c-6.4-0.5-10.8,0.7-15,6.5c-9.1,12.5-24.8,14.5-35.3,4.8c-4-3.8-6.7-2.8-10.2-0.7c-0.9,0.5-1.7,1-2.5,1.6c-5.8,4.3-5.9,8.8,0,12.7
			c3.1,2.1,6.7,3.7,10.3,5C-535.4,474.9-519.7,476.3-503.8,476.7z M-373.1,454.8c-8.6-1.3-8.7-1.2-8.7,6.8c0,8.2,0,16.3,0,24.5
			c0,2.9,0,5.8,0,8.4c61.4,0,121.9,0,183.1,0c-5.5-11.7-10.7-22.8-15.8-34c-3.3-7.1-4.1-7.5-12.4-5.5c0.9,11-5.4,17.7-14.3,22.5
			c-4.5,2.4-9.3,4.5-14.2,6c-22.4,6.7-45.2,7.5-68.3,4.6c-12.8-1.6-25.3-4.5-36.5-11.2C-368.4,471.9-374.1,465.5-373.1,454.8z
			 M-604.3,494.7c61.5,0,122.2,0,183.4,0c0-10.4,0-20.8,0-31.1c0-10.1,0.1-10.1-10-9.2c-0.3,0-0.5,0.3-1,0.7
			c1.3,10.3-4.6,16.7-12.8,21.5c-2.6,1.5-5.3,2.9-8,4c-20.9,8.1-42.7,9.8-64.9,8.5c-15-0.9-29.8-3.2-43.5-9.9
			c-10.1-5-17.9-11.7-17-26.2c-3.5,1.5-7.3,2-8.3,3.9C-592.6,469-598.1,481.5-604.3,494.7z M-516.7,520.8c29.7,0,59.3,0,89,0
			c5.6,0,6.7-1.2,6.6-6.8c-0.1-5.4-1.3-6.4-7.7-6.4c-58.5,0-117,0-175.5,0c-1,0-2,0-3,0c-3.1,0-4.4,1.8-4.8,4.6
			c-0.9,6.5,0.8,8.5,7.4,8.5C-575.3,520.8-546,520.8-516.7,520.8z M-286,520.8c29.5,0,59,0,88.5,0c5.8,0,6.5-1,6.6-6.7
			c0.1-4.7-1.9-6.5-6.6-6.5c-59.3,0.1-118.6,0.1-177.9,0.1c-0.5,0-1.2-0.2-1.5,0c-1.7,1.3-4.2,2.4-4.7,4.1c-1.8,6.2,0.5,9,7.1,9
			C-345,520.8-315.5,520.8-286,520.8z M-450.1,435.2c-3.5-19.5-7.2-39.9-11-61.6c-12.9,18.3-25,35.4-36.7,51.9
			C-481.9,428.7-466,431.9-450.1,435.2z"/>
		<path d="M-300.7,449.7c4.7,0.1,8,3,7.9,7.1c-0.1,3.7-3,6.5-6.8,6.4c-4.7-0.1-8.1-3-8-7C-307.4,452.5-304.4,449.6-300.7,449.7z"/>
		<path d="M-506.8,449.7c4.7,0,8,2.9,7.9,7c-0.1,3.7-3,6.5-6.7,6.4c-4.7-0.1-8.1-3-8-7C-513.5,452.5-510.5,449.6-506.8,449.7z"/>
	</g>
</g>
<g>
	<g>
		<path d="M-370.5,287.3c-19.6,21.9-43.7,15-53.9,11.7c-2.3-0.8-4.5-1.8-6.6-3.1c-2.5-1.5-5.8-2.9-7.5-4.3c-9-7.5-16-16.5-19.5-27.8
			c-1-3.2-2.7-4.3-5.7-5.1c-15.9-4.1-29.6-11.9-39.6-25.4c-12.9-17.6-13.2-41.6-0.7-59.5c2.7-3.9,6.7-5,10.3-2.9
			c3.7,2.2,4.7,6.1,2.5,10.5c-1.6,3.3-3.5,6.5-4.8,9.9c-4.6,12.6-2.5,24.3,5.9,34.7c6.8,8.4,15.8,13.6,27,17.2
			c-1-4.6-1.9-8.6-2.7-12.5c-1.2-6.1,0.1-8.4,5.7-11c4.8-2.2,9.5-4.7,14.3-7c3.1-1.5,3.8-3.8,3.9-7.2c0.3-8.3,1-16.5,2-24.8
			c0.3-2.7,1.5-5.5,2.7-8c4.6-9.8,13.9-12.3,21.3-4.6c6.2,6.5,10.7,14.7,15.8,22.2c0.8,1.2,1.3,2.7,1.9,4.1c3.3,8,3.1,7.6,12.9,7.6
			c3.2,0,6.3-0.2,9.5-0.4c5.4-0.3,8.1,1.5,9.4,6.8c1,4.2,1.8,8.4,2.8,12.7c22.1-11.1,25.7-46.2,6.6-63.1
			c-10.9-9.7-24.2-13.8-38.3-15.5c-21.9-2.7-42.8,1.3-62.7,10.7c-1.2,0.6-2.4,1.2-3.6,1.6c-4.1,1.3-7.4,0-9.1-3.9
			c-1.7-3.8-0.8-7.5,3-9.4c5.5-2.8,11.2-5,16.8-7.5c1.5-0.7,3-1.3,4.5-2c7.8-1.6,15.3-3.2,23.1-4.9c7.9-0.1,15.8-0.5,23.7-0.1
			c16.1,0.8,31.2,5.1,44.8,13.9c25.6,16.5,33.1,46.5,17.2,72.8c-5,8.4-12.9,15.1-19.4,22.6c-1.1,1.2-2.6,3-2.4,4.2
			C-359,240.5-357.2,268.2-370.5,287.3z M-388.1,284.4c0.9-0.9,1.6-1.8,2.3-2.8c7.1-10.6,13.8-21.7,12.2-34.9
			c-1.2-9.9-4-19.5-6.2-29.4c-4.8-0.2-9.4-0.5-14.1-0.5c-1,0-2.3,1-2.8,1.9c-8.9,14.3-23.2,17-37.1,7.4c-5.2-3.6-8.3,3.6-12.9,4.5
			c-1.1,0.2-2,2.1-2.9,3.2c-0.2,0.3,0.1,1,0.2,1.4c1.6,7.2,3,14.4,4.7,21.5c2.3,9.1,6.9,17,14.6,22.7c3,2.2,6,4.3,9.1,6.3
			c6.6,4.4,14.8,6.1,22.5,4.2C-394.7,288.9-391.1,287.3-388.1,284.4z M-422,180.5c-1.1,0.1-1.1,0.1-2.2,0.2
			c-2.6,9.3-3.6,18.8-2.1,28.5c0.9,5.7,5.1,8.5,10.3,7.3c5.2-1.2,8.2-5.8,6.1-11C-413.5,196.9-417.9,188.8-422,180.5z"/>
	</g>
</g>
<g>
	<g>
		<path d="M125.3,473.9c4-18,16.1-28.1,32-38.7c-13.7-6.3-25.4-13.2-38-17.1c-29.7-9.2-57.5-21.4-79.1-44.7
			c-20-21.5-29.8-47.3-29.9-76.7c-0.1-16.8,10.7-23.3,26.2-16.4c21.5,9.6,43.1,19.1,64.9,28c3.5,1.4,9.1,0.8,12.3-1.2
			c18.4-11,37.8-15.6,59.4-14.1c20.4,1.4,40.9,1,61.3,0.3c10.6-0.3,19,3.4,27.6,8.8c12.9,8.2,25.6,17.4,39.8,22.5
			c30.8,11.1,86.8-2.2,102.6-27.8c1.2-1.9,4.5-3.4,6.9-3.5c8.9-0.4,17.9-0.2,30-0.2c-6.2,9.5-10.5,17.9-16.4,25
			c-16,19.1-37.3,31.1-60.1,39.9c-34.9,13.5-66.7,31.8-95.4,56c-11.3,9.5-24.6,16.7-36.9,24.8c22,21,23.5,23.2,23.5,35.1
			C213,473.9,170,473.9,125.3,473.9z M98,375.1c-1.8-11.1-3.4-21.4-5.2-31.6c-0.2-1.4-1.3-3.2-2.4-3.7C76.7,334.7,63,329.7,48,324.2
			C58,349,75.6,363.9,98,375.1z"/>
		<path d="M141,276c11.5-14.7,20.6-28.6,32-40.3c11.7-12,26.9-11.5,38.1,0.7c10.7,11.6,19.5,24.9,30.8,39.6
			C207.4,276,176.1,276,141,276z"/>
	</g>
</g>
<path d="M225.7,193.9c1.7-4.2,2.8-8.9,5.3-12.6c8-12.1,23.5-16,36.5-9.8c0.5,0.2,1,0.5,1.9,0.9c0-1.2,0-2.1,0-3
	c0-33.6,0-67.3,0-100.9c0-5.8,1.1-7.4,6.4-9.5c31.3-12.5,62.6-25.1,93.9-37.6c5.4-2.2,9.8-0.5,11.2,4.3c0.3,0.9,0.3,1.9,0.3,2.9
	c0,43.3,0,86.7,0,130c0,16.7-13.3,29.7-30,29.4c-16.1-0.3-28.9-14.1-28.3-30.6c0.7-20.4,22.7-33.7,41.4-25.1c0.6,0.3,1.3,0.6,2.2,1
	c0-22,0-43.7,0-65.8c-27.5,11-55,22-82.5,33c0,1,0,2,0,3c0,31.3,0,62.6,0,93.8c0,16.9-13.5,30-30.4,29.5
	c-13.2-0.4-24.7-10.3-27.5-23.7c-0.1-0.5-0.3-1-0.5-1.6C225.7,199.1,225.7,196.5,225.7,193.9z"/>
<path d="M436.3,225.6c0-1.1,0-2,0-2.9c0-28.8,0-57.7-0.1-86.5c0-4.6,1.8-7.3,6-9.2c12.2-5.2,24.3-10.7,36.4-16.1
	c6.1-2.7,11.2,0.6,11.2,7.3c0,9.1,0,18.1,0,27.2c0,3.9-1.7,6.4-5.2,8c-10.5,4.6-21,9.4-31.5,13.9c-1.8,0.8-2.3,1.7-2.3,3.6
	c0.1,26.7,0.1,53.3,0,80c0,16.8-13.5,29.8-30.2,29.4c-14.5-0.4-27-12.4-28-26.9c-1.1-14.9,9.5-28.6,24.1-30.9
	C423.3,221.3,426.3,221.8,436.3,225.6z"/>
</svg>
