<?xml version="1.0" encoding="utf-8"?>
<!-- Generator: Adobe Illustrator 24.1.2, SVG Export Plug-In . SVG Version: 6.00 Build 0)  -->
<svg version="1.1" id="Capa_1" xmlns="http://www.w3.org/2000/svg" xmlns:xlink="http://www.w3.org/1999/xlink" x="0px" y="0px"
	 viewBox="0 0 800 800" style="enable-background:new 0 0 800 800;" xml:space="preserve">
<path d="M8,637.8v132.4c0,12.2,9.6,21.8,21.8,21.8h132.4c5.7,0,11.3-2.2,15.2-6.5L653,310.3L489.7,147L14.5,622.2
	C10.2,626.5,8,631.7,8,637.8z M779.3,184c17-17,17-44.4,0-61.4L677.4,20.7c-16.9-17-44.4-17-61.3-0.1c0,0,0,0-0.1,0.1l-79.7,79.7
	l163.3,163.3C699.6,263.7,779.3,184,779.3,184z"/>
</svg>
