<?xml version="1.0" encoding="utf-8"?>
<!-- Generator: Adobe Illustrator 24.1.2, SVG Export Plug-In . SVG Version: 6.00 Build 0)  -->
<svg version="1.1" id="Layer_1" xmlns="http://www.w3.org/2000/svg" xmlns:xlink="http://www.w3.org/1999/xlink" x="0px" y="0px"
	 viewBox="0 0 500 500" style="enable-background:new 0 0 500 500;" xml:space="preserve">
<style type="text/css">
	.st0{fill:#FFFFFF;}
</style>
<g>
	<path class="st0" d="M56.5,143.5H29.7v-10h26.8V143.5z"/>
	<path class="st0" d="M137.4,136.9h-30.5v22.9h35.7v10.3H94V95.8h48.2v10.4h-35.3v20.5h30.5V136.9z"/>
	<path class="st0" d="M180.4,141.5H166v28.6h-12.9V95.8h26.1c8.6,0,15.2,1.9,19.9,5.8c4.7,3.8,7,9.4,7,16.7c0,5-1.2,9.1-3.6,12.5
		s-5.7,5.9-10,7.7l16.7,30.9v0.7h-13.8L180.4,141.5z M166,131.1h13.3c4.4,0,7.8-1.1,10.2-3.3s3.7-5.2,3.7-9c0-4-1.1-7.1-3.4-9.2
		c-2.3-2.2-5.6-3.3-10.1-3.4H166V131.1z"/>
	<path class="st0" d="M245.6,141.5h-14.4v28.6h-12.9V95.8h26.1c8.6,0,15.2,1.9,19.9,5.8c4.7,3.8,7,9.4,7,16.7c0,5-1.2,9.1-3.6,12.5
		c-2.4,3.4-5.7,5.9-10,7.7l16.7,30.9v0.7h-13.8L245.6,141.5z M231.2,131.1h13.3c4.4,0,7.8-1.1,10.2-3.3c2.5-2.2,3.7-5.2,3.7-9
		c0-4-1.1-7.1-3.4-9.2c-2.3-2.2-5.6-3.3-10.1-3.4h-13.6V131.1z"/>
	<path class="st0" d="M342.8,134.9c0,7.3-1.3,13.7-3.8,19.2c-2.5,5.5-6.1,9.7-10.8,12.7c-4.7,2.9-10.1,4.4-16.2,4.4
		c-6,0-11.4-1.5-16.1-4.4c-4.7-2.9-8.4-7.1-10.9-12.6c-2.6-5.4-3.9-11.7-3.9-18.8v-4.2c0-7.2,1.3-13.6,3.9-19.2
		c2.6-5.5,6.2-9.8,10.9-12.7s10-4.4,16.1-4.4s11.4,1.5,16.1,4.4c4.7,2.9,8.3,7.1,10.8,12.6c2.6,5.5,3.8,11.8,3.9,19.1V134.9z
		 M329.9,131c0-8.2-1.6-14.5-4.7-18.9c-3.1-4.4-7.5-6.6-13.2-6.6c-5.6,0-9.9,2.2-13.1,6.6c-3.1,4.4-4.8,10.6-4.8,18.6v4.3
		c0,8.2,1.6,14.5,4.8,18.9c3.2,4.5,7.6,6.7,13.2,6.7c5.7,0,10.1-2.2,13.2-6.5c3.1-4.4,4.6-10.7,4.6-19.1V131z"/>
	<path class="st0" d="M383,141.5h-14.4v28.6h-12.9V95.8h26.1c8.6,0,15.2,1.9,19.9,5.8c4.7,3.8,7,9.4,7,16.7c0,5-1.2,9.1-3.6,12.5
		c-2.4,3.4-5.7,5.9-10,7.7l16.7,30.9v0.7h-13.8L383,141.5z M368.6,131.1h13.3c4.4,0,7.8-1.1,10.2-3.3c2.5-2.2,3.7-5.2,3.7-9
		c0-4-1.1-7.1-3.4-9.2c-2.3-2.2-5.6-3.3-10.1-3.4h-13.6V131.1z"/>
	<path class="st0" d="M469.8,143.5H443v-10h26.8V143.5z"/>
	<path class="st0" d="M34.8,295.5H21.9v-74.3h12.9V295.5z"/>
	<path class="st0" d="M107.4,271.3c-0.7,7.9-3.7,14.1-8.8,18.6c-5.1,4.4-11.9,6.7-20.4,6.7c-5.9,0-11.1-1.4-15.6-4.2
		c-4.5-2.8-8-6.8-10.4-12c-2.4-5.2-3.7-11.2-3.8-18v-6.9c0-7,1.2-13.2,3.7-18.5c2.5-5.3,6-9.5,10.7-12.4c4.6-2.9,10-4.3,16.1-4.3
		c8.2,0,14.8,2.2,19.8,6.7c5,4.4,7.9,10.7,8.7,18.9H94.5c-0.6-5.3-2.2-9.2-4.7-11.6c-2.5-2.4-6.2-3.5-11-3.5
		c-5.6,0-9.9,2.1-12.9,6.2c-3,4.1-4.6,10.1-4.6,18.1v6.6c0,8,1.4,14.2,4.3,18.4c2.9,4.2,7.1,6.3,12.6,6.3c5.1,0,8.9-1.1,11.4-3.4
		s4.2-6.1,4.8-11.4H107.4z"/>
	<path class="st0" d="M178.2,260.3c0,7.3-1.3,13.7-3.8,19.2c-2.5,5.5-6.1,9.7-10.8,12.7c-4.7,2.9-10.1,4.4-16.2,4.4
		c-6,0-11.4-1.5-16.1-4.4c-4.7-2.9-8.4-7.1-10.9-12.6c-2.6-5.4-3.9-11.7-3.9-18.8v-4.2c0-7.2,1.3-13.6,3.9-19.2
		c2.6-5.5,6.2-9.8,10.9-12.7c4.7-2.9,10-4.4,16.1-4.4c6.1,0,11.4,1.5,16.1,4.4c4.7,2.9,8.3,7.1,10.8,12.6c2.6,5.5,3.8,11.8,3.9,19.1
		V260.3z M165.3,256.4c0-8.2-1.6-14.5-4.7-18.9c-3.1-4.4-7.5-6.6-13.2-6.6c-5.6,0-9.9,2.2-13.1,6.6c-3.1,4.4-4.8,10.6-4.8,18.6v4.3
		c0,8.2,1.6,14.5,4.8,18.9c3.2,4.5,7.6,6.7,13.2,6.7c5.7,0,10.1-2.2,13.2-6.5c3.1-4.4,4.6-10.7,4.6-19.1V256.4z"/>
	<path class="st0" d="M250,295.5h-12.9L204,242.8v52.7H191v-74.3H204l33.2,52.9v-52.9H250V295.5z"/>
	<path class="st0" d="M350.2,295.5h-12.9l-33.1-52.7v52.7h-12.9v-74.3h12.9l33.2,52.9v-52.9h12.8V295.5z"/>
	<path class="st0" d="M424.8,260.3c0,7.3-1.3,13.7-3.8,19.2c-2.5,5.5-6.1,9.7-10.8,12.7c-4.7,2.9-10.1,4.4-16.2,4.4
		c-6,0-11.4-1.5-16.1-4.4c-4.7-2.9-8.4-7.1-10.9-12.6c-2.6-5.4-3.9-11.7-3.9-18.8v-4.2c0-7.2,1.3-13.6,3.9-19.2
		c2.6-5.5,6.2-9.8,10.9-12.7s10-4.4,16.1-4.4s11.4,1.5,16.1,4.4c4.7,2.9,8.3,7.1,10.8,12.6c2.6,5.5,3.8,11.8,3.9,19.1V260.3z
		 M411.9,256.4c0-8.2-1.6-14.5-4.7-18.9c-3.1-4.4-7.5-6.6-13.2-6.6c-5.6,0-9.9,2.2-13.1,6.6c-3.1,4.4-4.8,10.6-4.8,18.6v4.3
		c0,8.2,1.6,14.5,4.8,18.9c3.2,4.5,7.6,6.7,13.2,6.7c5.7,0,10.1-2.2,13.2-6.5c3.1-4.4,4.6-10.7,4.6-19.1V256.4z"/>
	<path class="st0" d="M487,231.6h-23.2v63.9H451v-63.9h-23v-10.4H487V231.6z"/>
	<path class="st0" d="M130.1,389.4h-29.9v31.5H87.3v-74.3h47.2V357h-34.3v22.1h29.9V389.4z"/>
	<path class="st0" d="M204,385.7c0,7.3-1.3,13.7-3.8,19.2c-2.5,5.5-6.1,9.7-10.8,12.7c-4.7,2.9-10.1,4.4-16.2,4.4
		c-6,0-11.4-1.5-16.1-4.4c-4.7-2.9-8.4-7.1-10.9-12.6c-2.6-5.4-3.9-11.7-3.9-18.8v-4.2c0-7.2,1.3-13.6,3.9-19.2
		c2.6-5.5,6.2-9.8,10.9-12.7c4.7-2.9,10-4.4,16.1-4.4c6.1,0,11.4,1.5,16.1,4.4c4.7,2.9,8.3,7.1,10.8,12.6s3.8,11.8,3.9,19.1V385.7z
		 M191.1,381.8c0-8.2-1.6-14.5-4.7-18.9c-3.1-4.4-7.5-6.6-13.2-6.6c-5.6,0-9.9,2.2-13.1,6.6c-3.1,4.4-4.8,10.6-4.8,18.6v4.3
		c0,8.2,1.6,14.5,4.8,18.9c3.2,4.5,7.6,6.7,13.2,6.7c5.7,0,10.1-2.2,13.2-6.5c3.1-4.4,4.6-10.7,4.6-19.1V381.8z"/>
	<path class="st0" d="M271.3,346.6v49.7c0,7.9-2.5,14.1-7.6,18.8c-5.1,4.6-11.8,6.9-20.2,6.9c-8.5,0-15.3-2.3-20.3-6.8
		c-5-4.5-7.5-10.8-7.5-18.9v-49.6h12.9v49.7c0,5,1.3,8.8,3.8,11.4c2.5,2.6,6.2,3.9,11.1,3.9c9.9,0,14.9-5.2,14.9-15.7v-49.3H271.3z"
		/>
	<path class="st0" d="M344,420.9h-12.9l-33.1-52.7v52.7H285v-74.3h12.9l33.2,52.9v-52.9H344V420.9z"/>
	<path class="st0" d="M359.2,420.9v-74.3h21.9c6.6,0,12.4,1.5,17.5,4.4c5.1,2.9,9,7.1,11.8,12.5c2.8,5.4,4.2,11.5,4.2,18.5v3.7
		c0,7-1.4,13.2-4.2,18.6c-2.8,5.3-6.8,9.5-12,12.4c-5.2,2.9-11.1,4.3-17.8,4.3H359.2z M372.1,357v53.6h8.4c6.8,0,12-2.1,15.6-6.4
		c3.6-4.2,5.5-10.3,5.5-18.2v-4.1c0-8.1-1.8-14.2-5.3-18.5c-3.5-4.3-8.6-6.4-15.3-6.4H372.1z"/>
</g>
</svg>
