<?xml version="1.0" encoding="utf-8"?>
<!-- Generator: Adobe Illustrator 24.1.2, SVG Export Plug-In . SVG Version: 6.00 Build 0)  -->
<svg version="1.1" id="Capa_1" xmlns="http://www.w3.org/2000/svg" xmlns:xlink="http://www.w3.org/1999/xlink" x="0px" y="0px"
	 viewBox="0 0 800 800" style="enable-background:new 0 0 800 800;" xml:space="preserve">
<path d="M123.9,779H56.4c-24.2,0-43.9-19.7-43.9-43.9V80.9C12.5,56.7,32.1,37,56.4,37h67.6c24.2,0,43.9,19.7,43.9,43.9v654.2
	C167.8,759.3,148.2,779,123.9,779z"/>
<path d="M330.2,779h-67.6c-24.2,0-43.9-19.7-43.9-43.9V252.9c0-24.2,19.7-43.9,43.9-43.9h67.6c24.2,0,43.9,19.7,43.9,43.9v482.2
	C374.1,759.3,354.5,779,330.2,779z"/>
<path d="M537,779h-67.6c-24.2,0-43.9-19.7-43.9-43.9V451.9c0-24.2,19.7-43.9,43.9-43.9H537c24.2,0,43.9,19.7,43.9,43.9v283.1
	C580.9,759.3,561.3,779,537,779z"/>
<path d="M743.5,779H676c-24.2,0-43.9-19.7-43.9-43.9V622.4c0-24.2,19.7-43.9,43.9-43.9h67.6c24.2,0,43.9,19.7,43.9,43.9v112.7
	C787.4,759.3,767.8,779,743.5,779z"/>
</svg>
