<?xml version="1.0" encoding="utf-8"?>
<!-- Generator: Adobe Illustrator 24.1.2, SVG Export Plug-In . SVG Version: 6.00 Build 0)  -->
<svg version="1.1" id="Layer_1" xmlns="http://www.w3.org/2000/svg" xmlns:xlink="http://www.w3.org/1999/xlink" x="0px" y="0px"
	 viewBox="0 0 1024 1024" style="enable-background:new 0 0 1024 1024;" xml:space="preserve">
<path d="M575.6,249.3c-145-35.1-291.1,54-326.2,199c-14.6,60.4-8,123.9,18.8,180l-66.5,66.5c-101-171.5-43.8-392.3,127.6-493.3
	c74.2-43.7,161.6-59.4,246.4-44.2V2.5l191,191l-191,191V249.3L575.6,249.3z M448.3,774.5c145.1,35.1,291.2-54,326.3-199.1
	c14.6-60.4,8-123.9-18.8-180l66.5-66.5c101,171.5,43.9,392.4-127.6,493.4c-74.2,43.7-161.7,59.4-246.5,44.2l0,154.7l-191-191
	l191-191L448.3,774.5z"/>
</svg>
