<?xml version="1.0" encoding="utf-8"?>
<!-- Generator: Adobe Illustrator 24.1.2, SVG Export Plug-In . SVG Version: 6.00 Build 0)  -->
<svg version="1.1" id="Layer_1" focusable="false" xmlns="http://www.w3.org/2000/svg" xmlns:xlink="http://www.w3.org/1999/xlink"
	 x="0px" y="0px" viewBox="0 0 24 24" style="enable-background:new 0 0 24 24;" xml:space="preserve">
<style type="text/css">
	.st0{fill:#FFFFFF;}
</style>
<polygon class="st0" points="8,5 5,5 8,7.5 "/>
<polygon class="st0" points="4,20 8,20 8,9.6 4,6.2 "/>
<polygon class="st0" points="14,9 10,9 10,9.2 14,12.6 "/>
<polygon class="st0" points="10,20 14,20 14,14.7 10,11.3 "/>
<polygon class="st0" points="15,20 19,20 19,19 15,15.5 "/>
<polygon class="st0" points="19,13 15,13 15,13.5 19,16.9 "/>
<polygon class="st0" points="20.9,20.6 1.9,4.3 0.8,5.6 19.9,21.8 20.9,20.6 20.9,20.6 "/>
</svg>
