<?xml version="1.0" encoding="utf-8"?>
<!-- Generator: Adobe Illustrator 24.1.2, SVG Export Plug-In . SVG Version: 6.00 Build 0)  -->
<svg version="1.1" id="Layer_1" focusable="false" xmlns="http://www.w3.org/2000/svg" xmlns:xlink="http://www.w3.org/1999/xlink"
	 x="0px" y="0px" viewBox="0 0 24 24" style="enable-background:new 0 0 24 24;" xml:space="preserve">
<g>
	<path d="M13.4,5.9L13.4,5.9L13.4,5.9L13.4,5.9V9l4.4-4.4l-4.4-4.4v3.6c-1.8-0.3-3.6,0-5.3,0.8l1.6,1.6C10.9,5.7,12.2,5.6,13.4,5.9z
		"/>
	<path d="M10.5,18.1V15L6,19.4l4.4,4.4v-3.6c2,0.4,4,0,5.7-1c0.8-0.5,1.5-1,2-1.7l-1.5-1.5C15.2,17.8,12.9,18.7,10.5,18.1z"/>
	<path d="M19.2,7.8l-1.5,1.5c0.6,1.3,0.8,2.8,0.4,4.2c-0.1,0.2-0.1,0.5-0.2,0.7l1.6,1.6C20.7,13.3,20.7,10.3,19.2,7.8z"/>
	<path d="M4.7,16.2l1.5-1.5c-0.6-1.3-0.8-2.8-0.4-4.2c0.3-1.3,1.1-2.5,2-3.3L6.4,5.7C3.5,8.3,2.7,12.7,4.7,16.2z"/>
	<rect x="11" y="0.4" transform="matrix(0.7071 -0.7071 0.7071 0.7071 -5.5066 12.222)" width="2.1" height="24.6"/>
</g>
</svg>
