<?xml version="1.0" encoding="utf-8"?>
<!-- Generator: Adobe Illustrator 24.1.2, SVG Export Plug-In . SVG Version: 6.00 Build 0)  -->
<svg version="1.1" id="Layer_1" xmlns="http://www.w3.org/2000/svg" xmlns:xlink="http://www.w3.org/1999/xlink" x="0px" y="0px"
	 viewBox="0 0 1024 1024" style="enable-background:new 0 0 1024 1024;" xml:space="preserve">
<path d="M575.6,249.3L575.6,249.3L575.6,249.3L575.6,249.3l0,135.2l191-191l-191-191v154.8c-77.3-13.8-156.8-2-226.5,33.3l68.1,68.1
	C466.2,240.5,521,236.1,575.6,249.3z"/>
<polygon points="575.6,249.3 575.6,249.3 575.6,249.3 "/>
<path d="M448.3,774.5V639.2l-191,191l191,191V866.5c84.8,15.2,172.3-0.5,246.5-44.2c33.4-19.7,62.5-44,86.9-71.5l-63.9-63.9
	C653.8,762.1,550.8,799.3,448.3,774.5z"/>
<path d="M822.3,328.8l-66.5,66.5c26.8,56.1,33.4,119.6,18.8,180c-2.6,10.7-5.8,21.1-9.6,31.2l68.3,68.3
	C886.9,568.9,887.1,438.7,822.3,328.8z"/>
<path d="M201.6,694.9l66.5-66.5c-26.8-56.1-33.4-119.6-18.8-180c14-57.7,45.5-106.6,87.6-142.3l-63.8-63.8
	C146.5,354.2,112.6,543.7,201.6,694.9z"/>
<rect x="469.1" y="13.7" transform="matrix(0.7071 -0.7071 0.7071 0.7071 -234.4451 523.0422)" width="90.1" height="1061.6"/>
</svg>
