<?xml version="1.0" encoding="utf-8"?>
<!-- Generator: Adobe Illustrator 24.1.2, SVG Export Plug-In . SVG Version: 6.00 Build 0)  -->
<svg version="1.1" id="Layer_1" xmlns="http://www.w3.org/2000/svg" xmlns:xlink="http://www.w3.org/1999/xlink" x="0px" y="0px"
	 viewBox="0 0 24 24" style="enable-background:new 0 0 24 24;" xml:space="preserve">
<path d="M12,0C5.4,0,0,5.4,0,12s5.4,12,12,12c6.6,0,12-5.4,12-12S18.6,0,12,0z M12,21.6c-5.3,0-9.6-4.3-9.6-9.6S6.7,2.4,12,2.4
	s9.6,4.3,9.6,9.6S17.3,21.6,12,21.6z M11.7,6L11.7,6c-0.6,0-0.9,0.4-0.9,0.9v5.7c0,0.4,0.2,0.8,0.6,1l5,3c0.4,0.2,0.9,0.1,1.2-0.3
	c0.3-0.4,0.1-0.9-0.3-1.2l-4.6-2.8V6.9C12.6,6.4,12.2,6,11.7,6z"/>
</svg>
