<?xml version="1.0" encoding="utf-8"?>
<!-- Generator: Adobe Illustrator 24.1.2, SVG Export Plug-In . SVG Version: 6.00 Build 0)  -->
<svg version="1.1" id="Layer_1" xmlns="http://www.w3.org/2000/svg" xmlns:xlink="http://www.w3.org/1999/xlink" x="0px" y="0px"
	 viewBox="0 0 24 24" style="enable-background:new 0 0 24 24;" xml:space="preserve">
<path d="M13.1,1c-0.2-0.2-0.6-0.2-0.8,0L9.9,3.3h5.6C15.5,3.3,13.1,1,13.1,1z M12.3,23c0.2,0.2,0.6,0.2,0.8,0l2.3-2.3H10L12.3,23z
	 M10.8,18.8c0.7,0,1.2-0.7,0.9-1.4L7.3,6.1C7.1,5.6,6.6,5.2,6,5.2S4.9,5.6,4.7,6.1L0.3,17.4C0,18,0.5,18.8,1.2,18.8
	c0.4,0,0.8-0.3,0.9-0.6L3,15.9h6l0.8,2.2C10,18.5,10.4,18.8,10.8,18.8z M3.7,13.9L6,7.8l2.3,6.1C8.3,13.9,3.7,13.9,3.7,13.9z
	 M22.7,16.9h-6.3l6.8-9.8c0.5-0.8,0-1.9-1-1.9h-7.7c-0.5,0-0.9,0.4-0.9,0.9v0c0,0.5,0.4,0.9,0.9,0.9h6l-6.8,9.8
	c-0.5,0.8,0,1.9,1,1.9h7.9c0.5,0,0.9-0.4,0.9-0.9C23.7,17.3,23.2,16.9,22.7,16.9z"/>
</svg>
