<?xml version="1.0" encoding="utf-8"?>
<!-- Generator: Adobe Illustrator 24.1.2, SVG Export Plug-In . SVG Version: 6.00 Build 0)  -->
<svg version="1.1" id="Layer_1" xmlns="http://www.w3.org/2000/svg" xmlns:xlink="http://www.w3.org/1999/xlink" x="0px" y="0px"
	 viewBox="0 0 24 24" style="enable-background:new 0 0 24 24;" xml:space="preserve">
<path d="M17.9,12c0-2.3-1.3-4.3-3.3-5.3v2.9l3.2,3.2C17.9,12.6,17.9,12.3,17.9,12z M21.2,12c0,1.2-0.3,2.4-0.7,3.5l2,2
	c0.9-1.6,1.3-3.5,1.3-5.4c0-5.6-3.9-10.3-9.2-11.5v2.7C18.4,4.3,21.2,7.9,21.2,12z M1.9,0.2L0.2,1.9l6.2,6.2H0.2v7.9h5.2l6.5,6.5
	v-8.8l5.6,5.6c-0.9,0.7-1.9,1.2-2.9,1.5v2.7c1.8-0.4,3.4-1.2,4.8-2.4l2.7,2.7l1.7-1.7L12,10.3L1.9,0.2z M12,1.5L9.3,4.3L12,7V1.5z"
	/>
</svg>
